# xmcd
#
# Track frame offsets:
# 150
# 76528
# 156355
# 215270
#
# Disc length: 3919 seconds
#
#
# Revision: 0
# Processed by: cddbd v1.5.2PL0 Copyright (c) Steve Scherf et al.
# Submitted via: FreeRIP 2.945 
#
DISCID=240f4d04
DTITLE=Keillor-G2003 - Home-Prairie1
DYEAR=2003
DGENRE=Folk
TTITLE0=1 O Youth
TTITLE1=2 The school Forest
TTITLE2=3 Tent Caterpillars
TTITLE3=4 Camp Scotty
EXTD=Home on the Prairie by Garrison Keillor \nStories from Lake Wobegon\nfolk country HighBridgeaudio.com
EXTT0=
EXTT1=
EXTT2=
EXTT3=
PLAYORDER=
